<svg width="238" height="233" viewBox="0 0 238 233" fill="none" xmlns="http://www.w3.org/2000/svg">
<path d="M92.7398 116.852H93.0438V117.085C92.9478 116.999 92.8438 116.925 92.7398 116.852ZM152.732 106.552C152.046 109.461 151.284 111.715 150.62 112.307C149.078 113.685 147.268 114.177 145.345 114.247H144.693C139.698 114.196 134.077 111.701 130.357 114.247H128.138V116.991C126.516 120.752 127.656 126.84 127.637 130.541C127.59 139.6 127.72 148.656 127.714 157.716C127.712 165.032 127.873 172.341 128.138 179.651V198.489C128.114 198.551 128.09 198.617 128.065 198.675H97.6291C96.5011 197.499 95.9065 195.741 95.6478 193.703V187.131C95.9638 183.471 96.5971 179.94 96.6731 177.909C97.2825 161.685 97.1465 145.075 95.6478 128.828V114.247H81.7665C80.5411 113.345 79.6171 111.808 78.9585 109.911V92.2134C81.2558 86.7481 86.3905 87.9201 91.2585 87.0281H95.6478V68.4308C96.1078 60.0402 97.7545 52.0668 103.802 44.3735C109.406 37.2481 116.636 33.9881 124.52 32.5815C126.17 32.4135 127.905 32.3161 129.749 32.3161L154.446 32.4214V51.7601C154.33 56.5508 155.006 56.8881 150.642 58.0761C146.213 59.2828 141.565 57.7268 136.977 58.7708H136.888C132.997 58.7708 128.908 60.9121 128.269 66.6574C126.293 72.4854 127.624 80.1188 127.442 86.0588C127.408 87.1895 128.386 87.9841 129.437 88.0548C134.194 88.3721 138.925 88.5015 143.688 88.2095C143.862 88.1988 148.581 87.3974 151.445 87.0574H153.684C154.101 87.3681 154.368 88.1401 154.514 89.2401L152.732 106.552ZM157.248 82.8481C154.212 83.3481 150.597 84.0601 147.026 84.4521H138.781C133.929 83.6681 130.433 81.0041 130.77 74.2788C131.465 60.3801 145.262 61.5028 155.714 61.4788C155.893 61.4788 156.057 61.4348 156.213 61.3748H157.052V60.5841C157.129 60.4068 157.177 60.2122 157.185 60.0082C157.542 50.3455 158.176 40.7402 158.288 31.0615C158.296 30.3268 157.933 29.8428 157.449 29.5561C157.389 29.5175 157.332 29.4788 157.264 29.4508C156.894 29.2868 156.488 29.2441 156.085 29.3068C143.401 28.9068 129.425 27.3735 117.538 31.2748C102.75 35.3015 95.6345 46.7175 93.6585 58.9401C93.1358 61.0121 92.7211 63.1054 92.4131 65.1934C91.7691 69.5414 92.7838 74.9054 91.8118 79.0548C90.8585 83.1228 87.9318 84.1001 84.4211 84.4228H76.3531V85.2655C76.0011 85.5321 75.7625 85.9201 75.7398 86.4601C75.3145 96.5721 75.1958 106.631 75.7145 116.741C75.7571 117.591 76.4145 118.371 77.3198 118.347C82.6678 118.207 88.5358 116.795 91.8211 123.152C92.9745 125.385 92.4678 132.899 92.6158 135.188C92.7798 137.7 92.9038 140.22 93.0438 142.736V187.107C92.7465 191.78 91.1718 197.316 92.8451 201.748C93.1238 202.485 93.6198 202.824 94.3798 202.917C99.8785 203.592 105.654 201.951 111.236 202.056C117.844 202.181 124.274 203.641 130.894 203.311C131.625 203.275 132.201 202.732 132.22 201.985C132.597 187.319 130.945 172.448 130.988 157.716C131.008 150.835 130.918 143.948 130.981 137.068C131.025 132.215 129.85 123.208 133.009 119.379C137.578 113.835 145.365 119.547 151.092 116.852H154.29L154.725 112.627C157.978 105.193 158.281 90.2361 159.352 84.9535C159.628 83.5948 158.565 82.6321 157.248 82.8481Z" fill="#4B2315"/>
<path d="M228.004 146.495C228.436 145.651 228.858 144.804 229.252 143.945C228.462 146.371 227.581 148.768 226.608 151.137C227.108 149.604 227.568 148.055 228.004 146.495ZM44.5651 208.084C40.1704 204.228 36.3268 199.483 32.9122 194.425C42.0184 204.112 52.7704 212.22 64.7238 218.313C57.3424 215.969 50.1371 212.972 44.5651 208.084ZM222.412 150.424C208.693 173.375 191.68 195.685 169.442 211.081C147.222 226.464 116.125 231.78 90.5331 222.26C65.1838 212.831 37.6903 199.241 22.9304 175.787C21.9148 174.173 20.958 172.515 20.032 170.835C11.3711 151.233 7.81429 131.843 5.54656 109.919C5.23149 106.867 5.12989 103.867 5.14656 100.899C9.08829 70.56 25.12 43.9787 48.2558 26.156C60.3291 18.3654 73.7131 12.396 86.9478 8.20934C110.425 0.784007 137.896 6.64 160.082 15.3067C166.068 17.644 172.312 20.228 178.322 23.2614C184.689 27.4107 190.72 32.072 196.246 37.3106C201.189 41.996 205.766 47.2093 209.921 52.8013C212.924 58.3107 215.437 64.1093 217.693 69.7267C222.333 81.2773 226.852 93.0494 229.148 104.861C229.477 108.364 229.665 111.908 229.665 115.495C229.665 124.835 228.502 133.907 226.352 142.591C225.268 145.211 223.968 147.823 222.412 150.424ZM159.358 219.924C183.877 207.76 203.282 185.491 217.921 162.925C219.138 161.048 220.376 159.172 221.6 157.291C210.226 185.672 187.653 208.381 159.358 219.924ZM5.60443 76.3747C6.89243 72.2027 8.53096 68.1613 10.5012 64.268C8.6127 68.1627 6.97109 72.2014 5.60443 76.3747ZM4.94976 78.508C5.04496 78.1614 5.15283 77.8187 5.25336 77.472C5.14603 77.8147 5.05336 78.164 4.94976 78.508ZM35.0002 192.844C46.9811 203.736 61.5944 211.317 77.7104 218.925C85.5478 222.625 93.6798 225.383 101.94 227.081C99.1784 226.739 96.4211 226.321 93.6678 225.82C70.8038 221.007 50.4851 209.235 35.0002 192.844ZM216.473 54.4414C208.869 42.4187 199.057 32.664 187.901 24.6707C176.166 15.4787 162.621 8.51336 147.888 4.40003C135.837 0.526697 123.94 -0.574639 112.113 0.264027C97.3704 0.872027 83.3411 4.26265 70.5211 9.91865C60.1024 14.1426 50.2624 19.772 41.4331 26.636C41.3291 26.608 41.2184 26.6094 41.1144 26.692C20.9555 42.816 2.90016 62.5906 0.451758 89.516C-0.476909 99.7346 0.0610962 110.785 1.74496 121.812C2.81683 141.569 8.8883 160.015 18.7064 175.915C26.5168 192.627 37.0971 209.719 53.5518 217.38C77.8344 228.688 108.397 235.016 135.057 231.072C145.545 229.521 157.321 226.547 166.974 222.093C175.48 218.169 182.572 211.84 189.293 205.227C196.978 199.015 203.857 191.847 209.734 183.891C223.24 167.713 233.856 148.415 236.585 127.741C239.938 102.347 229.95 75.7534 216.473 54.4414Z" fill="#4B2315"/>
<path d="M128.845 119.416C128.26 117.96 128.362 115.432 128.44 113.635C132.002 112.972 137.24 113.725 140.785 114.423" fill="#4B2315"/>
<path d="M103.803 44.3735C103.351 44.9495 102.969 45.5295 102.565 46.1082C106.175 42.8495 109.777 39.5815 113.371 36.3028C109.852 38.1855 106.621 40.7895 103.803 44.3735Z" fill="#4B2315"/>
<path d="M121.989 33.1161C120.993 33.3521 120.01 33.6214 119.042 33.9308C112.078 40.6188 105.202 47.4094 98.3185 54.1907C97.8718 55.4054 97.4931 56.6281 97.1785 57.8588C105.518 49.6881 113.689 41.3307 121.989 33.1161Z" fill="#4B2315"/>
<path d="M117.694 43.8401C121.622 39.9895 125.561 36.1481 129.516 32.3228C128.877 32.3255 128.258 32.3455 127.644 32.3708C123.981 35.8481 120.345 39.3508 116.722 42.8681C109.856 49.5374 103.002 56.2308 96.1745 62.9481C96.0278 64.0095 95.9105 65.0774 95.8185 66.1521C103.168 58.7361 110.312 51.0775 117.694 43.8401Z" fill="#4B2315"/>
<path d="M134.764 32.3374L132.7 32.3294C126.414 38.5734 120.317 45.0267 114.142 51.3734C108.044 57.6427 101.836 63.8081 95.6477 69.9894V72.1481C100.852 66.9241 106.065 61.7107 111.245 56.4681C119.138 48.4774 126.808 40.2521 134.764 32.3374Z" fill="#4B2315"/>
<path d="M140.601 32.3628L138.193 32.3521C123.392 46.7788 110.137 63.0681 95.6477 77.8908V80.8934C103.25 73.0161 110.35 64.5255 117.637 56.9588C125.385 48.9121 132.792 40.4148 140.601 32.3628Z" fill="#4B2315"/>
<path d="M85.6265 87.6494C83.4438 89.6561 81.2292 91.6255 78.9585 93.5281V95.7975C82.5052 93.2162 85.8852 90.3535 89.1465 87.3095C87.9465 87.4268 86.7585 87.5001 85.6265 87.6494Z" fill="#4B2315"/>
<path d="M115.86 64.4867C109.169 70.7641 102.39 76.952 95.6477 83.1774V85.7107C102.032 79.6107 108.441 73.5361 114.921 67.5147C126.929 56.3574 137.468 43.6521 149.36 32.4001L147.909 32.3934C136.886 42.7147 126.913 54.1174 115.86 64.4867Z" fill="#4B2315"/>
<path d="M91.5012 87.0281C87.2838 90.9481 83.0958 94.9027 78.9585 98.9067V101.803C84.0412 96.8547 89.1465 91.9321 94.2705 87.0281H91.5012Z" fill="#4B2315"/>
<path d="M116.442 71.6602C107.785 79.9522 99.0412 88.1682 90.1358 96.1949C86.6252 99.3615 82.6878 102.404 78.9585 105.644V108.146C91.8025 95.6402 105.932 84.1882 118.699 71.6895C130.916 59.7295 142.508 47.1589 154.447 34.9282V33.2482C141.755 46.0268 129.454 59.1975 116.442 71.6602Z" fill="#4B2315"/>
<path d="M140.498 58.3921C145.117 54.0561 149.757 49.7441 154.446 45.4854V43.4401C148.778 48.4574 143.176 53.5428 137.609 58.6681C138.572 58.4961 139.534 58.4054 140.498 58.3921Z" fill="#4B2315"/>
<path d="M80.0358 112.243C80.4531 112.936 80.9331 113.513 81.4704 113.976C97.0864 99.9227 112.2 85.3081 127.406 70.7921C127.534 69.6734 127.745 68.5934 128.033 67.5547C124.402 70.9667 120.784 74.3934 117.19 77.8481C105.148 89.4227 91.8358 100.239 80.0358 112.243Z" fill="#4B2315"/>
<path d="M110.762 95.4934C104.2 101.837 97.0997 107.899 90.3064 114.247H93.2944C99.0504 108.669 104.89 103.16 110.718 97.5147C116.372 92.0361 121.832 86.3681 127.345 80.7614C127.321 80.2081 127.297 79.6521 127.273 79.0894C121.772 84.5561 116.34 90.1001 110.762 95.4934Z" fill="#4B2315"/>
<path d="M153.865 55.3801C152.669 56.2734 151.516 57.2108 150.348 58.1348C150.446 58.1108 150.545 58.1028 150.642 58.0761C151.536 57.8334 152.176 57.6228 152.697 57.4055C153.184 57.0241 153.652 56.6241 154.144 56.2481C154.246 56.0228 154.309 55.7561 154.35 55.4521C154.233 55.3121 154.058 55.2361 153.865 55.3801Z" fill="#4B2315"/>
<path d="M95.6477 114.316V117.887C105.474 108.616 115.434 99.4987 125.209 90.0974C126.14 89.2027 127.09 88.332 128.025 87.4427C127.658 87.0947 127.425 86.6187 127.442 86.0587C127.444 86.0227 127.441 85.9827 127.442 85.9467C126.693 86.652 125.925 87.336 125.178 88.0454C115.75 97.0027 105.413 105.405 95.6477 114.316Z" fill="#4B2315"/>
<path d="M93.0437 116.852H92.8651C92.8464 116.869 92.8264 116.887 92.8077 116.904C92.8877 116.961 92.9691 117.017 93.0437 117.085V116.852Z" fill="#4B2315"/>
<path d="M95.6477 122.72V124.912C105.281 116.173 115.35 107.841 124.906 99.2255C128.874 95.6468 132.788 92.0134 136.68 88.3601C135.917 88.3494 135.153 88.3214 134.39 88.2961C130.054 92.2401 125.694 96.1575 121.3 100.031C112.734 107.579 104.117 115.064 95.6477 122.72Z" fill="#4B2315"/>
<path d="M95.8025 130.975C95.8785 131.871 95.9278 132.773 95.9958 133.672C106.297 124.037 116.593 114.397 126.846 104.712C132.868 99.0228 139.052 93.5055 145.217 87.9695C144.357 88.1068 143.748 88.2054 143.688 88.2094C143.356 88.2294 143.025 88.2334 142.692 88.2494C136.956 93.2787 131.214 98.3028 125.61 103.476C115.677 112.643 105.722 121.791 95.8025 130.975Z" fill="#4B2315"/>
<path d="M96.5584 142.019C116.593 125.031 135.372 106.355 154.269 88.0908C154.121 87.6068 153.932 87.2415 153.684 87.0575H153.2C134.304 104.345 115.36 121.57 96.3584 138.734C96.4237 139.83 96.5051 140.92 96.5584 142.019Z" fill="#4B2315"/>
<path d="M91.8144 151.408C91.1838 151.994 92.0144 153.109 92.7464 152.616C92.8491 152.547 92.9411 152.467 93.0438 152.398V150.227C92.6291 150.615 92.2304 151.022 91.8144 151.408Z" fill="#4B2315"/>
<path d="M96.8211 149.612C108.029 140.913 117.108 129.361 127.46 119.671C127.593 118.708 127.794 117.789 128.138 116.991V116.353C117.241 125.971 107.192 136.581 96.7197 146.689C96.7544 147.664 96.7944 148.637 96.8211 149.612Z" fill="#4B2315"/>
<path d="M134.794 113.127C141.064 107.745 147.47 102.533 153.702 97.1255L153.922 94.9935C146.269 101.404 138.369 107.528 130.786 114.035C131.977 113.357 133.333 113.115 134.794 113.127Z" fill="#4B2315"/>
<path d="M96.9158 152.351C96.9291 153.024 96.9438 153.697 96.9531 154.371C106.906 149.425 113.864 139.801 121.868 132.392C123.709 130.688 125.608 129.047 127.494 127.392C127.445 126.672 127.396 125.919 127.353 125.159C125.762 126.497 124.157 127.82 122.592 129.189C113.812 136.865 106.412 145.549 96.9158 152.351Z" fill="#4B2315"/>
<path d="M142.913 114.135C143.46 113.564 143.994 112.981 144.544 112.413C144.708 112.244 144.964 112.501 144.802 112.671C144.765 112.709 144.729 112.749 144.693 112.788C147.425 110.496 150.125 108.165 152.808 105.817L152.994 104.007C149.066 107.363 145.077 110.644 141.061 113.893C141.681 113.988 142.298 114.072 142.913 114.135Z" fill="#4B2315"/>
<path d="M96.9704 161.443C96.9691 161.827 96.9757 162.212 96.973 162.596C101.965 158.172 107.057 153.837 111.616 148.943C117.02 143.139 122.325 137.245 127.638 131.361C127.64 131.088 127.636 130.815 127.637 130.541C127.637 130.525 127.636 130.504 127.636 130.487C121.489 137.175 115.352 143.868 109.041 150.395C105.265 154.303 101.092 157.849 96.9704 161.443Z" fill="#4B2315"/>
<path d="M144.802 112.671C144.964 112.501 144.708 112.244 144.544 112.413C143.994 112.981 143.46 113.564 142.913 114.135C143.081 114.152 143.245 114.153 143.412 114.167C143.841 113.709 144.261 113.244 144.693 112.788C144.729 112.749 144.765 112.709 144.802 112.671Z" fill="#4B2315"/>
<path d="M96.9798 165.504C96.9705 166.375 96.9345 167.236 96.9198 168.105C107.148 158.749 117.52 149.541 127.653 140.084C127.652 139.548 127.652 139.011 127.65 138.475C121.802 143.696 115.925 148.885 110.182 154.223C106.089 158.028 101.51 161.715 96.9798 165.504Z" fill="#4B2315"/>
<path d="M96.7344 175.471C107.241 165.489 117.365 155.092 127.664 144.884C127.66 144.211 127.662 143.537 127.658 142.864C117.254 152.769 107.102 162.96 96.797 172.98C96.7744 173.809 96.761 174.643 96.7344 175.471Z" fill="#4B2315"/>
<path d="M96.4824 180.037C96.3704 180.999 96.2277 182.096 96.0784 183.263C105.558 174.109 114.516 164.28 123.856 155.125C125.132 153.873 126.413 152.627 127.689 151.376C127.686 150.76 127.685 150.144 127.682 149.529C126.084 151.072 124.477 152.605 122.884 154.153C114.045 162.736 105.249 171.373 96.4824 180.037Z" fill="#4B2315"/>
<path d="M97.217 185.864C96.697 186.388 96.1717 186.948 95.6477 187.492V189.627C102.932 182.368 110.181 175.068 117.405 167.753C120.87 164.245 124.292 160.691 127.713 157.139C127.712 156.424 127.705 155.708 127.704 154.993C125.24 157.553 122.777 160.115 120.302 162.659C112.696 170.477 104.91 178.129 97.217 185.864Z" fill="#4B2315"/>
<path d="M95.8878 195.057C96.0718 195.881 96.3425 196.624 96.6878 197.291C106.285 188.1 114.902 177.483 123.797 168.244C125.137 166.853 126.456 165.435 127.778 164.021C127.766 163.005 127.754 161.988 127.748 160.972C117.262 172.489 107.026 184.311 95.8878 195.057Z" fill="#4B2315"/>
<path d="M122.021 175.772C113.894 183.396 105.642 190.891 97.4811 198.48C97.5344 198.541 97.5731 198.616 97.6291 198.675H100.052C107.013 192.008 114.008 185.373 121.081 178.8C123.414 176.632 125.682 174.397 127.924 172.135C127.906 171.459 127.881 170.784 127.866 170.109C125.945 172.021 124.001 173.913 122.021 175.772Z" fill="#4B2315"/>
<path d="M105.882 198.675H107.83C113.618 193.524 119.369 188.349 124.86 182.975C125.969 181.888 127.04 180.764 128.138 179.668V179.651C128.113 178.945 128.102 178.24 128.078 177.536C126.25 179.336 124.457 181.169 122.604 182.945C117.078 188.236 111.497 193.475 105.882 198.675Z" fill="#4B2315"/>
<path d="M113.028 198.675H116.194C120.178 194.875 124.16 191.071 128.139 187.263V184.588C126.545 186.105 124.939 187.608 123.351 189.133C119.993 192.361 116.525 195.524 113.028 198.675Z" fill="#4B2315"/>
<path d="M125.126 198.675H127.005C127.382 198.289 127.761 197.905 128.138 197.52V195.663C127.137 196.668 126.13 197.671 125.126 198.675Z" fill="#4B2315"/>
</svg>
